<svg width="250" height="250" viewBox="0 0 250 250" fill="none" xmlns="http://www.w3.org/2000/svg">
<rect width="250" height="250" rx="57" fill="#806BFF"/>
<path d="M57.4 200L26.4 54.2H60.8L74.2 127.4L80.6 166H82.2L105.2 54.2H143.4L167 166.4H168.4L174.4 127.8L187.4 54.2H221.8L190.8 200H148L125 96.2H123.6L100 200H57.4Z" fill="url(#paint0_radial_222_378)"/>
<path d="M158.644 178.497L200.06 137.081C193.092 134.171 186.763 129.921 181.435 124.571C176.082 119.241 171.83 112.911 168.919 105.94L127.503 147.356C124.272 150.587 122.654 152.206 121.265 153.986C119.625 156.088 118.219 158.362 117.071 160.768C116.102 162.806 115.38 164.979 113.935 169.313L106.308 192.177C105.957 193.224 105.905 194.348 106.158 195.423C106.41 196.498 106.958 197.481 107.739 198.261C108.519 199.042 109.502 199.59 110.577 199.842C111.652 200.095 112.776 200.043 113.823 199.692L136.687 192.065C141.027 190.62 143.194 189.898 145.232 188.929C147.64 187.781 149.914 186.376 152.014 184.735C153.794 183.346 155.413 181.728 158.644 178.497ZM211.551 125.59C215.68 121.46 218 115.86 218 110.02C218 104.18 215.68 98.5789 211.551 94.4494C207.421 90.3199 201.82 88 195.98 88C190.14 88 184.54 90.3199 180.41 94.4494L175.443 99.4164L175.656 100.038C178.104 107.042 182.109 113.399 187.371 118.629C192.758 124.048 199.337 128.133 206.584 130.557L211.551 125.59Z" fill="white"/>
<defs>
<radialGradient id="paint0_radial_222_378" cx="0" cy="0" r="1" gradientUnits="userSpaceOnUse" gradientTransform="translate(16.7209 57.3643) rotate(31.5142) scale(290.095 8149.34)">
<stop stop-color="#BAAFFE"/>
<stop offset="1" stop-color="#DFDFDF" stop-opacity="0"/>
</radialGradient>
</defs>
</svg>
